<?xml version="1.0" standalone="no"?>
<!DOCTYPE svg PUBLIC "-//W3C//DTD SVG 20010904//EN"
 "http://www.w3.org/TR/2001/REC-SVG-20010904/DTD/svg10.dtd">
<svg version="1.0" xmlns="http://www.w3.org/2000/svg"
 width="700.000000pt" height="700.000000pt" viewBox="0 0 700.000000 700.000000"
 preserveAspectRatio="xMidYMid meet">
<metadata>
Created by potrace 1.14, written by Peter Selinger 2001-2017
</metadata>
<g transform="translate(0.000000,700.000000) scale(0.100000,-0.100000)"
fill="#000000" stroke="none">
<path d="M4005 6112 c-128 -37 -181 -108 -234 -317 -17 -66 -45 -169 -61 -230
-17 -60 -43 -159 -59 -220 -95 -357 -176 -656 -206 -765 -19 -69 -86 -321
-149 -560 -64 -239 -120 -448 -125 -465 -5 -16 -19 -68 -31 -115 -12 -47 -37
-139 -55 -205 -18 -66 -56 -205 -84 -310 -27 -104 -81 -307 -120 -450 -38
-143 -81 -303 -95 -355 -14 -52 -55 -205 -91 -340 -36 -135 -68 -252 -70 -260
-2 -8 -11 -44 -21 -80 -22 -84 -24 -144 -6 -200 77 -235 378 -278 521 -73 28
41 38 74 165 553 147 553 354 1328 366 1370 9 30 69 253 132 490 11 41 39 149
64 240 24 91 60 226 80 300 19 74 42 158 50 185 13 48 121 450 129 484 3 9 25
93 50 186 26 94 57 211 70 260 13 50 45 167 70 260 25 94 48 177 50 185 36
136 37 198 1 275 -58 128 -207 197 -341 157z"/>
<path d="M1947 4940 c-27 -10 -63 -30 -80 -43 -18 -14 -302 -295 -632 -625
-665 -666 -648 -646 -648 -772 0 -128 -18 -107 664 -789 458 -457 627 -620
664 -639 73 -38 179 -37 254 1 148 76 205 249 129 395 -15 28 -197 217 -517
538 l-494 494 501 502 c462 462 504 506 523 557 71 190 -51 380 -252 395 -47
3 -77 0 -112 -14z"/>
<path d="M4872 4944 c-164 -51 -249 -236 -180 -393 21 -45 99 -128 523 -552
l499 -499 -493 -492 c-270 -271 -504 -513 -518 -538 -40 -66 -45 -178 -11
-252 73 -159 265 -223 413 -136 17 9 306 293 643 629 680 680 665 663 665 788
0 129 19 107 -665 790 -440 439 -628 621 -661 638 -57 28 -154 36 -215 17z"/>
</g>
</svg>
